<svg width="376" height="124" viewBox="32 30 376 124" xmlns="http://www.w3.org/2000/svg">
  <defs>
    <linearGradient id="flareGrad" x1="10%" y1="0%" x2="90%" y2="100%">
      <stop offset="0%" stop-color="#D6B8FF"/>
      <stop offset="50%" stop-color="#9B5DE5"/>
      <stop offset="100%" stop-color="#5B2A9E"/>
    </linearGradient>
    <radialGradient id="coreGlow" cx="50%" cy="50%" r="50%">
      <stop offset="0%" stop-color="#F4ECFF" stop-opacity="0.9"/>
      <stop offset="100%" stop-color="#C9A6FF" stop-opacity="0"/>
    </radialGradient>
  </defs>
  <g transform="translate(78, 80)">
    <circle cx="0" cy="0" r="38" fill="url(#coreGlow)"/>
    <path d="M -44 42 C -26 24, -8 8, 3 -4 C 12 -14, 20 -28, 28 -48 L 34 -48 C 27 -22, 16 -4, 5 6 C -8 17, -25 28, -42 46 Z" fill="url(#flareGrad)"/>
    <path d="M -32 -28 C -19 -17, -8 -8, 0 0 C -12 -2, -25 -9, -38 -18 Z" fill="url(#flareGrad)"/>
    <circle cx="1" cy="-1" r="6" fill="#FBF7FF"/>
  </g>
  <g fill="#F5F3F7">
    <path d="M152.06 100.0V58.239999999999995H160.064L178.218 86.08V58.239999999999995H186.222V100.0H178.218L160.064 72.16V100.0Z"/>
    <path d="M206.436 100.87Q201.709 100.87 198.142 98.753Q194.57500000000002 96.636 192.5885 92.9095Q190.602 89.18299999999999 190.602 84.34Q190.602 79.439 192.632 75.71249999999999Q194.662 71.98599999999999 198.229 69.898Q201.79600000000002 67.81 206.436 67.81Q211.163 67.81 214.74450000000002 69.92699999999999Q218.32600000000002 72.044 220.327 75.7705Q222.328 79.497 222.328 84.34Q222.328 89.212 220.3125 92.9385Q218.29700000000003 96.665 214.71550000000002 98.76750000000001Q211.13400000000001 100.87 206.436 100.87ZM206.436 93.504Q210.235 93.504 212.1055 90.9375Q213.976 88.371 213.976 84.34Q213.976 80.164 212.0765 77.67Q210.17700000000002 75.176 206.436 75.176Q203.85500000000002 75.176 202.202 76.336Q200.549 77.496 199.75150000000002 79.555Q198.954 81.614 198.954 84.34Q198.954 88.545 200.8535 91.0245Q202.75300000000001 93.504 206.436 93.504Z"/>
    <path d="M235.17600000000002 100.0 223.80800000000002 68.68H231.69600000000003L239.12000000000003 90.372L246.54400000000004 68.68H254.43200000000002L243.06400000000002 100.0Z"/>
    <path d="M266.35200000000003 100.87Q262.98800000000006 100.87 260.6535 99.5795Q258.319 98.289 257.1155 96.1285Q255.91200000000003 93.968 255.91200000000003 91.358Q255.91200000000003 89.18299999999999 256.57900000000006 87.38499999999999Q257.24600000000004 85.587 258.7395 84.20949999999999Q260.23300000000006 82.832 262.75600000000003 81.904Q264.49600000000004 81.26599999999999 266.903 80.773Q269.31000000000006 80.28 272.355 79.8305Q275.40000000000003 79.381 279.05400000000003 78.83L276.21200000000005 80.396Q276.21200000000005 77.612 274.87800000000004 76.30699999999999Q273.54400000000004 75.002 270.41200000000003 75.002Q268.672 75.002 266.78700000000003 75.84299999999999Q264.90200000000004 76.684 264.148 78.83L257.01400000000007 76.568Q258.20300000000003 72.682 261.48 70.24600000000001Q264.75700000000006 67.81 270.41200000000003 67.81Q274.559 67.81 277.778 69.086Q280.99700000000007 70.362 282.65000000000003 73.494Q283.57800000000003 75.234 283.75200000000007 76.97399999999999Q283.92600000000004 78.714 283.92600000000004 80.86V100.0H277.02400000000006V93.562L278.01000000000005 94.896Q275.71900000000005 98.057 273.06550000000004 99.46350000000001Q270.41200000000003 100.87 266.35200000000003 100.87ZM268.03400000000005 94.664Q270.20900000000006 94.664 271.70250000000004 93.8955Q273.196 93.127 274.08050000000003 92.14099999999999Q274.96500000000003 91.155 275.28400000000005 90.488Q275.89300000000003 89.212 275.9945 87.5155Q276.09600000000006 85.819 276.09600000000006 84.688L278.41600000000005 85.268Q274.90700000000004 85.848 272.732 86.23949999999999Q270.557 86.631 269.22300000000007 86.95Q267.88900000000007 87.269 266.874 87.646Q265.71400000000006 88.11 265.00350000000003 88.6465Q264.29300000000006 89.18299999999999 263.95950000000005 89.821Q263.62600000000003 90.459 263.62600000000003 91.242Q263.62600000000003 92.315 264.1625 93.0835Q264.69900000000007 93.852 265.68500000000006 94.25800000000001Q266.67100000000005 94.664 268.03400000000005 94.664Z"/>
  </g>
  <g fill="#B083F0">
    <path d="M289.46600000000007 100.0V58.239999999999995H306.1700000000001Q310.6360000000001 58.239999999999995 313.3910000000001 60.0235Q316.1460000000001 61.806999999999995 317.4220000000001 64.50399999999999Q318.6980000000001 67.201 318.6980000000001 69.956Q318.6980000000001 73.465 317.11750000000006 75.785Q315.53700000000003 78.105 312.78200000000004 78.888V77.438Q316.69700000000006 78.25 318.6545000000001 81.063Q320.6120000000001 83.876 320.6120000000001 87.356Q320.6120000000001 91.097 319.2345000000001 93.939Q317.8570000000001 96.781 315.0440000000001 98.3905Q312.23100000000005 100.0 307.9680000000001 100.0ZM297.4700000000001 92.576H307.15600000000006Q308.7510000000001 92.576 309.99800000000005 91.8945Q311.24500000000006 91.213 311.95550000000003 89.9805Q312.66600000000005 88.748 312.66600000000005 87.066Q312.66600000000005 85.587 312.0570000000001 84.42699999999999Q311.4480000000001 83.267 310.2155000000001 82.5855Q308.98300000000006 81.904 307.15600000000006 81.904H297.4700000000001ZM297.4700000000001 74.538H306.0540000000001Q307.3880000000001 74.538 308.4320000000001 74.074Q309.47600000000006 73.61 310.08500000000004 72.6385Q310.6940000000001 71.667 310.6940000000001 70.13Q310.6940000000001 68.216 309.5050000000001 66.911Q308.3160000000001 65.606 306.0540000000001 65.606H297.4700000000001Z"/>
    <path d="M324.9920000000001 100.0V57.37H332.8800000000001V100.0Z"/>
    <path d="M353.6740000000001 100.87Q348.9470000000001 100.87 345.3800000000001 98.753Q341.8130000000001 96.636 339.8265000000001 92.9095Q337.8400000000001 89.18299999999999 337.8400000000001 84.34Q337.8400000000001 79.439 339.8700000000001 75.71249999999999Q341.9000000000001 71.98599999999999 345.4670000000001 69.898Q349.0340000000001 67.81 353.6740000000001 67.81Q358.40100000000007 67.81 361.9825000000001 69.92699999999999Q365.5640000000001 72.044 367.56500000000005 75.7705Q369.5660000000001 79.497 369.5660000000001 84.34Q369.5660000000001 89.212 367.55050000000006 92.9385Q365.5350000000001 96.665 361.9535000000001 98.76750000000001Q358.37200000000007 100.87 353.6740000000001 100.87ZM353.6740000000001 93.504Q357.47300000000007 93.504 359.34350000000006 90.9375Q361.2140000000001 88.371 361.2140000000001 84.34Q361.2140000000001 80.164 359.31450000000007 77.67Q357.4150000000001 75.176 353.6740000000001 75.176Q351.0930000000001 75.176 349.44000000000005 76.336Q347.7870000000001 77.496 346.98950000000013 79.555Q346.1920000000001 81.614 346.1920000000001 84.34Q346.1920000000001 88.545 348.0915000000001 91.0245Q349.9910000000001 93.504 353.6740000000001 93.504Z"/>
    <path d="M387.3440000000001 114.79Q384.6760000000001 114.79 382.2690000000001 113.93450000000001Q379.8620000000001 113.07900000000001 377.9625000000001 111.5565Q376.0630000000001 110.034 374.8740000000001 108.004L382.1820000000001 104.466Q382.9360000000001 105.858 384.3425000000001 106.583Q385.7490000000001 107.308 387.4020000000001 107.308Q389.1710000000001 107.308 390.7370000000001 106.71350000000001Q392.3030000000001 106.119 393.2455000000001 104.9445Q394.1880000000001 103.77 394.1300000000001 102.03V92.924H395.1160000000001V68.68H402.0180000000001V102.146Q402.0180000000001 103.306 401.91650000000004 104.3355Q401.81500000000005 105.365 401.5540000000001 106.38Q400.80000000000007 109.251 398.7555000000001 111.107Q396.71100000000007 112.963 393.75300000000004 113.8765Q390.7950000000001 114.79 387.3440000000001 114.79ZM386.6480000000001 100.87Q382.32700000000006 100.87 379.07900000000006 98.695Q375.8310000000001 96.52 374.0185000000001 92.779Q372.2060000000001 89.038 372.2060000000001 84.34Q372.2060000000001 79.555 374.04750000000007 75.8285Q375.88900000000007 72.102 379.22400000000005 69.956Q382.5590000000001 67.81 387.0540000000001 67.81Q391.5200000000001 67.81 394.56500000000005 69.985Q397.61000000000007 72.16 399.17600000000004 75.901Q400.7420000000001 79.642 400.7420000000001 84.34Q400.7420000000001 89.038 399.16150000000005 92.779Q397.5810000000001 96.52 394.44900000000007 98.695Q391.31700000000006 100.87 386.6480000000001 100.87ZM387.9240000000001 93.852Q390.5630000000001 93.852 392.14350000000013 92.66300000000001Q393.7240000000001 91.474 394.4200000000001 89.328Q395.1160000000001 87.182 395.1160000000001 84.34Q395.1160000000001 81.49799999999999 394.4200000000001 79.352Q393.7240000000001 77.206 392.2015000000001 76.017Q390.6790000000001 74.828 388.21400000000006 74.828Q385.5750000000001 74.828 383.8785000000001 76.1185Q382.1820000000001 77.40899999999999 381.3700000000001 79.5695Q380.5580000000001 81.73 380.5580000000001 84.34Q380.5580000000001 86.979 381.3410000000001 89.1395Q382.1240000000001 91.3 383.74800000000005 92.576Q385.37200000000007 93.852 387.9240000000001 93.852Z"/>
  </g>
  <text x="277" y="142" font-family="system-ui, -apple-system, sans-serif" font-size="15" font-weight="700" letter-spacing="1.2" fill="#B083F0" text-anchor="middle" opacity="0.95">Share Idea's. Inspire World.</text>
  <line x1="125" y1="137" x2="145" y2="137" stroke="#B083F0" stroke-width="2.5" stroke-linecap="round" opacity="0.95" />
  <line x1="409" y1="137" x2="429" y2="137" stroke="#B083F0" stroke-width="2.5" stroke-linecap="round" opacity="0.95" />
</svg>
